<?xml version="1.0" standalone="no"?>
<!DOCTYPE svg PUBLIC "-//W3C//DTD SVG 20010904//EN"
 "http://www.w3.org/TR/2001/REC-SVG-20010904/DTD/svg10.dtd">
<svg version="1.0" xmlns="http://www.w3.org/2000/svg"
 width="2000.000000pt" height="1374.000000pt" viewBox="0 0 2000.000000 1374.000000"
 preserveAspectRatio="xMidYMid meet">

<g transform="translate(0.000000,1374.000000) scale(0.100000,-0.100000)"
fill="#000000" stroke="none">
<path d="M9755 13724 c-790 -60 -1491 -280 -2145 -672 -669 -400 -1239 -969
-1645 -1642 -614 -1019 -826 -2246 -590 -3415 249 -1231 968 -2314 2005 -3018
800 -543 1726 -827 2695 -827 1736 0 3317 925 4180 2445 511 898 714 1993 565
3035 -203 1409 -1046 2679 -2268 3414 -601 362 -1233 576 -1952 662 -128 15
-718 28 -845 18z m2213 -2383 c112 -50 190 -178 180 -294 -11 -124 40 -68
-1087 -1180 -570 -562 -1376 -1357 -1791 -1767 -415 -410 -809 -798 -875 -862
l-120 -118 1800 0 1800 0 -705 705 -705 705 213 212 212 213 989 -990 c947
-948 989 -992 1006 -1044 50 -155 -8 -301 -147 -370 l-61 -31 -2596 0 c-2449
0 -2599 1 -2645 17 -66 24 -129 82 -162 149 -22 45 -27 70 -27 128 0 137 -31
100 707 828 363 359 877 866 1141 1128 264 262 828 820 1254 1240 l774 765
-1549 5 c-1529 5 -1549 5 -1553 25 -2 14 66 87 275 292 l279 272 1670 -2 1670
-2 53 -24z"/>
<path d="M4952 1733 l3 -898 28 -90 c74 -238 209 -425 400 -554 70 -47 221
-116 297 -135 263 -66 734 -58 960 16 355 115 616 426 671 798 17 121 7 363
-21 465 -47 173 -136 330 -256 450 -218 218 -475 305 -902 305 -340 0 -555
-54 -755 -189 l-77 -52 0 391 0 390 -175 0 -176 0 3 -897z m1313 7 c156 -14
248 -36 340 -80 179 -86 311 -248 361 -441 23 -86 23 -254 1 -338 -50 -187
-177 -346 -347 -435 -180 -95 -546 -119 -819 -55 -412 96 -636 559 -457 944
115 245 317 373 636 403 135 13 162 13 285 2z"/>
<path d="M17790 1320 l0 -1310 175 0 175 0 0 158 0 159 73 69 c39 38 156 149
259 247 102 98 197 187 211 197 l24 19 59 -62 c32 -34 213 -223 403 -420 l344
-357 234 0 c226 0 234 1 221 19 -12 17 -314 335 -798 839 -113 118 -207 219
-209 224 -2 6 207 221 465 479 l469 469 -249 0 -250 0 -270 -268 c-149 -147
-431 -425 -626 -617 l-355 -350 -3 908 -2 907 -175 0 -175 0 0 -1310z"/>
<path d="M3195 2078 c-217 -24 -377 -77 -518 -171 -330 -222 -489 -592 -436
-1017 41 -332 275 -643 584 -778 151 -65 298 -91 561 -99 506 -15 790 76 1030
331 124 130 196 261 246 444 29 104 32 400 5 504 -46 186 -128 336 -253 468
-231 242 -498 332 -971 329 -92 -1 -204 -6 -248 -11z m534 -353 c163 -24 270
-72 379 -166 260 -228 308 -610 112 -894 -75 -108 -210 -212 -332 -254 -222
-76 -682 -71 -883 10 -88 36 -164 90 -243 173 -301 317 -216 835 171 1050 82
45 170 71 292 85 55 6 114 13 130 15 53 7 275 -4 374 -19z"/>
<path d="M8600 2083 c-99 -10 -251 -37 -309 -55 -277 -85 -515 -307 -625 -580
-53 -131 -69 -220 -69 -398 0 -178 16 -267 69 -398 89 -221 268 -417 473 -518
170 -83 322 -113 607 -121 399 -12 657 44 867 185 279 190 437 496 437 852 0
356 -158 663 -439 853 -198 134 -435 189 -799 185 -97 0 -193 -3 -212 -5z
m488 -358 c159 -24 265 -69 378 -161 94 -77 184 -225 219 -359 17 -67 20 -227
5 -295 -26 -116 -97 -245 -185 -336 -152 -155 -343 -216 -680 -216 -355 -1
-539 61 -703 237 -159 170 -218 409 -157 635 49 186 216 375 395 446 167 67
472 88 728 49z"/>
<path d="M13550 2083 c-99 -10 -251 -37 -309 -55 -265 -82 -499 -291 -611
-548 -115 -262 -116 -592 -2 -858 110 -256 351 -471 617 -551 238 -72 689 -80
975 -19 365 78 659 364 752 733 20 78 23 115 22 270 0 161 -3 190 -26 276 -62
230 -209 438 -402 568 -152 103 -283 148 -514 177 -104 13 -405 17 -502 7z
m493 -358 c281 -42 488 -208 574 -459 25 -73 28 -94 28 -216 0 -115 -3 -145
-24 -205 -34 -102 -95 -201 -171 -275 -160 -156 -339 -212 -675 -213 -352 0
-540 63 -702 237 -242 259 -242 653 -1 911 112 120 215 178 375 210 179 36
398 40 596 10z"/>
<path d="M897 2059 c-162 -24 -316 -82 -449 -171 -198 -133 -334 -315 -405
-545 l-28 -88 -3 -622 -3 -623 170 0 170 0 3 578 3 577 27 80 c76 226 262 390
518 456 82 22 107 23 643 26 l557 4 0 170 0 169 -572 -1 c-315 -1 -599 -5
-631 -10z"/>
<path d="M11235 2063 c-398 -51 -716 -289 -854 -636 -58 -145 -61 -189 -61
-833 l0 -584 175 0 175 0 0 578 c0 642 0 640 66 761 96 174 261 297 474 352
82 22 107 23 643 26 l557 4 0 170 0 169 -572 -1 c-315 -1 -586 -4 -603 -6z"/>
<path d="M16107 2054 c-397 -72 -711 -350 -815 -722 -25 -90 -27 -111 -27
-287 0 -167 3 -201 24 -280 43 -167 119 -303 240 -428 161 -168 359 -270 605
-312 73 -12 200 -15 707 -15 l619 0 0 169 0 170 -612 3 c-697 4 -682 3 -863
92 -141 70 -241 165 -309 296 -55 105 -69 174 -64 330 4 123 7 142 36 215 79
199 262 353 497 417 78 22 97 22 698 26 l617 3 0 169 0 170 -637 -1 c-504 -1
-654 -4 -716 -15z"/>
</g>
</svg>
